<?xml version="1.0" encoding="UTF-8"?>
<svg width="113px" height="30px" viewBox="0 0 113 30" version="1.1" xmlns="http://www.w3.org/2000/svg" xmlns:xlink="http://www.w3.org/1999/xlink">
    <!-- Generator: Sketch 53.2 (72643) - https://sketchapp.com -->
    <title>Apple Button</title>
    <desc>Created with Sketch.</desc>
    <g id="Finals" stroke="none" stroke-width="1" fill="none" fill-rule="evenodd">
        <g id="Returning-User" transform="translate(-214.000000, -1960.000000)" fill="#5D677A" fill-rule="nonzero">
            <g id="Group-11" transform="translate(30.000000, 1954.000000)">
                <g id="button---appStore" transform="translate(165.000000, 0.000000)">
                    <g id="Apple-Button" transform="translate(19.000000, 6.000000)">
                        <path d="M43.645,25.504 L41.374,25.504 L40.13,21.595 L35.806,21.595 L34.621,25.504 L32.41,25.504 L36.694,12.196 L39.34,12.196 L43.645,25.504 Z M39.755,19.955 L38.63,16.48 C38.511,16.125 38.288,15.289 37.959,13.973 L37.919,13.973 C37.788,14.539 37.577,15.375 37.287,16.48 L36.182,19.955 L39.755,19.955 Z M54.662,20.588 C54.662,22.22 54.221,23.51 53.339,24.457 C52.549,25.3 51.568,25.721 50.397,25.721 C49.133,25.721 48.225,25.267 47.672,24.359 L47.632,24.359 L47.632,29.414 L45.5,29.414 L45.5,19.067 C45.5,18.041 45.473,16.988 45.421,15.908 L47.296,15.908 L47.415,17.429 L47.455,17.429 C48.166,16.283 49.245,15.711 50.693,15.711 C51.825,15.711 52.77,16.158 53.526,17.053 C54.284,17.949 54.662,19.127 54.662,20.588 Z M52.49,20.666 C52.49,19.732 52.28,18.962 51.858,18.356 C51.397,17.724 50.778,17.408 50.002,17.408 C49.476,17.408 48.998,17.584 48.571,17.931 C48.143,18.281 47.863,18.738 47.732,19.304 C47.666,19.568 47.633,19.784 47.633,19.954 L47.633,21.554 C47.633,22.252 47.847,22.841 48.275,23.322 C48.703,23.803 49.259,24.043 49.943,24.043 C50.746,24.043 51.371,23.733 51.818,23.115 C52.266,22.496 52.49,21.68 52.49,20.666 Z M65.699,20.588 C65.699,22.22 65.258,23.51 64.375,24.457 C63.586,25.3 62.605,25.721 61.434,25.721 C60.17,25.721 59.262,25.267 58.71,24.359 L58.67,24.359 L58.67,29.414 L56.538,29.414 L56.538,19.067 C56.538,18.041 56.511,16.988 56.459,15.908 L58.334,15.908 L58.453,17.429 L58.493,17.429 C59.203,16.283 60.282,15.711 61.731,15.711 C62.862,15.711 63.807,16.158 64.565,17.053 C65.32,17.949 65.699,19.127 65.699,20.588 Z M63.527,20.666 C63.527,19.732 63.316,18.962 62.894,18.356 C62.433,17.724 61.816,17.408 61.039,17.408 C60.512,17.408 60.035,17.584 59.607,17.931 C59.179,18.281 58.9,18.738 58.769,19.304 C58.704,19.568 58.67,19.784 58.67,19.954 L58.67,21.554 C58.67,22.252 58.884,22.841 59.31,23.322 C59.738,23.802 60.294,24.043 60.98,24.043 C61.783,24.043 62.408,23.733 62.855,23.115 C63.303,22.496 63.527,21.68 63.527,20.666 Z M78.039,21.772 C78.039,22.904 77.646,23.825 76.857,24.536 C75.99,25.313 74.783,25.701 73.232,25.701 C71.8,25.701 70.652,25.425 69.783,24.872 L70.277,23.095 C71.213,23.661 72.24,23.945 73.359,23.945 C74.162,23.945 74.787,23.763 75.236,23.401 C75.683,23.039 75.906,22.553 75.906,21.947 C75.906,21.407 75.722,20.952 75.353,20.583 C74.986,20.214 74.373,19.871 73.517,19.554 C71.187,18.685 70.023,17.412 70.023,15.738 C70.023,14.644 70.431,13.747 71.248,13.049 C72.062,12.35 73.148,12.001 74.506,12.001 C75.717,12.001 76.723,12.212 77.526,12.633 L76.993,14.371 C76.243,13.963 75.395,13.759 74.446,13.759 C73.696,13.759 73.11,13.944 72.69,14.312 C72.335,14.641 72.157,15.042 72.157,15.517 C72.157,16.043 72.36,16.478 72.768,16.82 C73.123,17.136 73.768,17.478 74.704,17.847 C75.849,18.308 76.69,18.847 77.231,19.465 C77.77,20.081 78.039,20.852 78.039,21.772 Z M85.088,17.508 L82.738,17.508 L82.738,22.167 C82.738,23.352 83.152,23.944 83.982,23.944 C84.363,23.944 84.679,23.911 84.929,23.845 L84.988,25.464 C84.568,25.621 84.015,25.7 83.33,25.7 C82.488,25.7 81.83,25.443 81.355,24.93 C80.882,24.416 80.644,23.554 80.644,22.343 L80.644,17.506 L79.244,17.506 L79.244,15.906 L80.644,15.906 L80.644,14.149 L82.738,13.517 L82.738,15.906 L85.088,15.906 L85.088,17.508 Z M95.691,20.627 C95.691,22.102 95.269,23.313 94.427,24.26 C93.544,25.235 92.372,25.721 90.911,25.721 C89.503,25.721 88.382,25.254 87.546,24.32 C86.71,23.386 86.292,22.207 86.292,20.786 C86.292,19.299 86.722,18.081 87.585,17.134 C88.446,16.186 89.608,15.712 91.069,15.712 C92.477,15.712 93.61,16.179 94.465,17.114 C95.283,18.021 95.691,19.192 95.691,20.627 Z M93.479,20.696 C93.479,19.811 93.29,19.052 92.907,18.419 C92.46,17.653 91.821,17.271 90.993,17.271 C90.136,17.271 89.485,17.654 89.038,18.419 C88.655,19.053 88.466,19.824 88.466,20.736 C88.466,21.621 88.655,22.38 89.038,23.012 C89.499,23.778 90.143,24.16 90.974,24.16 C91.788,24.16 92.427,23.77 92.888,22.992 C93.281,22.347 93.479,21.58 93.479,20.696 Z M102.621,17.783 C102.41,17.744 102.185,17.724 101.949,17.724 C101.199,17.724 100.619,18.007 100.211,18.574 C99.856,19.074 99.678,19.706 99.678,20.469 L99.678,25.504 L97.547,25.504 L97.567,18.93 C97.567,17.824 97.54,16.817 97.487,15.909 L99.344,15.909 L99.422,17.745 L99.481,17.745 C99.706,17.114 100.061,16.606 100.547,16.225 C101.022,15.882 101.535,15.711 102.088,15.711 C102.285,15.711 102.463,15.725 102.621,15.75 L102.621,17.783 Z M112.156,20.252 C112.156,20.634 112.131,20.956 112.078,21.219 L105.682,21.219 C105.707,22.167 106.016,22.892 106.61,23.392 C107.149,23.839 107.846,24.063 108.702,24.063 C109.649,24.063 110.513,23.912 111.29,23.609 L111.624,25.089 C110.716,25.485 109.644,25.682 108.407,25.682 C106.919,25.682 105.751,25.244 104.901,24.369 C104.053,23.494 103.628,22.319 103.628,20.845 C103.628,19.398 104.023,18.193 104.814,17.232 C105.642,16.206 106.761,15.693 108.169,15.693 C109.552,15.693 110.599,16.206 111.31,17.232 C111.873,18.047 112.156,19.055 112.156,20.252 Z M110.123,19.699 C110.137,19.067 109.998,18.521 109.709,18.06 C109.34,17.467 108.773,17.171 108.01,17.171 C107.313,17.171 106.746,17.46 106.313,18.04 C105.958,18.501 105.747,19.054 105.682,19.698 L110.123,19.698 L110.123,19.699 Z" id="App-Store"></path>
                        <path d="M39.05,4.009 C39.05,5.186 38.697,6.072 37.992,6.667 C37.339,7.216 36.411,7.491 35.209,7.491 C34.613,7.491 34.103,7.465 33.676,7.413 L33.676,0.982 C34.233,0.892 34.833,0.846 35.481,0.846 C36.626,0.846 37.489,1.095 38.071,1.593 C38.723,2.156 39.05,2.961 39.05,4.009 Z M37.945,4.038 C37.945,3.275 37.743,2.69 37.339,2.282 C36.935,1.875 36.345,1.671 35.568,1.671 C35.238,1.671 34.957,1.693 34.724,1.739 L34.724,6.628 C34.853,6.648 35.089,6.657 35.432,6.657 C36.234,6.657 36.853,6.434 37.289,5.988 C37.725,5.542 37.945,4.892 37.945,4.038 Z M44.909,5.037 C44.909,5.762 44.702,6.356 44.288,6.822 C43.854,7.301 43.279,7.54 42.561,7.54 C41.869,7.54 41.318,7.311 40.907,6.851 C40.497,6.392 40.292,5.813 40.292,5.115 C40.292,4.385 40.503,3.786 40.927,3.321 C41.351,2.856 41.921,2.623 42.639,2.623 C43.331,2.623 43.887,2.852 44.308,3.311 C44.708,3.757 44.909,4.333 44.909,5.037 Z M43.822,5.071 C43.822,4.636 43.728,4.263 43.541,3.952 C43.321,3.576 43.008,3.388 42.601,3.388 C42.18,3.388 41.86,3.576 41.64,3.952 C41.452,4.263 41.359,4.642 41.359,5.09 C41.359,5.525 41.453,5.898 41.64,6.209 C41.867,6.585 42.183,6.773 42.591,6.773 C42.991,6.773 43.305,6.582 43.531,6.199 C43.725,5.882 43.822,5.506 43.822,5.071 Z M52.765,2.719 L51.29,7.433 L50.33,7.433 L49.719,5.386 C49.564,4.875 49.438,4.367 49.34,3.863 L49.321,3.863 C49.23,4.381 49.104,4.888 48.942,5.386 L48.293,7.433 L47.322,7.433 L45.935,2.719 L47.012,2.719 L47.545,4.96 C47.674,5.49 47.78,5.995 47.865,6.473 L47.884,6.473 C47.962,6.079 48.091,5.577 48.273,4.97 L48.942,2.72 L49.796,2.72 L50.437,4.922 C50.592,5.459 50.718,5.976 50.815,6.474 L50.844,6.474 C50.915,5.989 51.022,5.472 51.164,4.922 L51.736,2.72 L52.765,2.72 L52.765,2.719 Z M58.198,7.433 L57.15,7.433 L57.15,4.733 C57.15,3.901 56.834,3.485 56.2,3.485 C55.889,3.485 55.638,3.599 55.443,3.828 C55.25,4.057 55.152,4.327 55.152,4.636 L55.152,7.432 L54.104,7.432 L54.104,4.066 C54.104,3.652 54.091,3.203 54.066,2.717 L54.987,2.717 L55.036,3.454 L55.065,3.454 C55.187,3.225 55.369,3.036 55.608,2.885 C55.892,2.709 56.21,2.62 56.558,2.62 C56.998,2.62 57.364,2.762 57.655,3.047 C58.017,3.396 58.198,3.917 58.198,4.609 L58.198,7.433 Z M61.088,7.433 L60.041,7.433 L60.041,0.556 L61.088,0.556 L61.088,7.433 Z M67.258,5.037 C67.258,5.762 67.051,6.356 66.637,6.822 C66.203,7.301 65.627,7.54 64.91,7.54 C64.217,7.54 63.666,7.311 63.256,6.851 C62.846,6.392 62.641,5.813 62.641,5.115 C62.641,4.385 62.852,3.786 63.276,3.321 C63.7,2.856 64.27,2.623 64.987,2.623 C65.68,2.623 66.235,2.852 66.657,3.311 C67.057,3.757 67.258,4.333 67.258,5.037 Z M66.17,5.071 C66.17,4.636 66.076,4.263 65.889,3.952 C65.67,3.576 65.356,3.388 64.95,3.388 C64.528,3.388 64.208,3.576 63.989,3.952 C63.801,4.263 63.708,4.642 63.708,5.09 C63.708,5.525 63.802,5.898 63.989,6.209 C64.216,6.585 64.532,6.773 64.94,6.773 C65.34,6.773 65.653,6.582 65.879,6.199 C66.074,5.882 66.17,5.506 66.17,5.071 Z M72.33,7.433 L71.389,7.433 L71.311,6.89 L71.282,6.89 C70.96,7.323 70.501,7.54 69.905,7.54 C69.46,7.54 69.1,7.397 68.829,7.113 C68.583,6.855 68.46,6.534 68.46,6.153 C68.46,5.577 68.7,5.138 69.183,4.834 C69.665,4.53 70.343,4.381 71.216,4.388 L71.216,4.3 C71.216,3.679 70.89,3.369 70.237,3.369 C69.772,3.369 69.362,3.486 69.008,3.718 L68.795,3.03 C69.233,2.759 69.774,2.623 70.412,2.623 C71.644,2.623 72.262,3.273 72.262,4.573 L72.262,6.309 C72.262,6.78 72.285,7.155 72.33,7.433 Z M71.242,5.813 L71.242,5.086 C70.086,5.066 69.508,5.383 69.508,6.036 C69.508,6.282 69.574,6.466 69.709,6.589 C69.844,6.712 70.016,6.773 70.221,6.773 C70.451,6.773 70.666,6.7 70.862,6.555 C71.059,6.409 71.18,6.224 71.225,5.997 C71.236,5.946 71.242,5.884 71.242,5.813 Z M78.285,7.433 L77.355,7.433 L77.306,6.676 L77.277,6.676 C76.98,7.252 76.474,7.54 75.763,7.54 C75.195,7.54 74.722,7.317 74.347,6.871 C73.972,6.425 73.785,5.846 73.785,5.135 C73.785,4.372 73.988,3.754 74.396,3.282 C74.791,2.842 75.275,2.622 75.851,2.622 C76.484,2.622 76.927,2.835 77.179,3.262 L77.199,3.262 L77.199,0.556 L78.248,0.556 L78.248,6.163 C78.248,6.622 78.26,7.045 78.285,7.433 Z M77.199,5.445 L77.199,4.659 C77.199,4.523 77.189,4.413 77.17,4.329 C77.111,4.077 76.984,3.865 76.791,3.694 C76.596,3.523 76.361,3.437 76.09,3.437 C75.699,3.437 75.393,3.592 75.168,3.903 C74.945,4.214 74.832,4.611 74.832,5.096 C74.832,5.562 74.939,5.94 75.154,6.231 C75.381,6.541 75.687,6.696 76.07,6.696 C76.414,6.696 76.689,6.567 76.898,6.308 C77.1,6.069 77.199,5.781 77.199,5.445 Z M87.248,5.037 C87.248,5.762 87.041,6.356 86.627,6.822 C86.193,7.301 85.619,7.54 84.9,7.54 C84.209,7.54 83.658,7.311 83.246,6.851 C82.836,6.392 82.631,5.813 82.631,5.115 C82.631,4.385 82.842,3.786 83.266,3.321 C83.69,2.856 84.26,2.623 84.979,2.623 C85.67,2.623 86.227,2.852 86.647,3.311 C87.047,3.757 87.248,4.333 87.248,5.037 Z M86.162,5.071 C86.162,4.636 86.068,4.263 85.881,3.952 C85.66,3.576 85.348,3.388 84.94,3.388 C84.52,3.388 84.2,3.576 83.979,3.952 C83.791,4.263 83.698,4.642 83.698,5.09 C83.698,5.525 83.792,5.898 83.979,6.209 C84.206,6.585 84.522,6.773 84.93,6.773 C85.33,6.773 85.645,6.582 85.871,6.199 C86.064,5.882 86.162,5.506 86.162,5.071 Z M92.883,7.433 L91.836,7.433 L91.836,4.733 C91.836,3.901 91.52,3.485 90.885,3.485 C90.574,3.485 90.323,3.599 90.129,3.828 C89.935,4.057 89.838,4.327 89.838,4.636 L89.838,7.432 L88.789,7.432 L88.789,4.066 C88.789,3.652 88.777,3.203 88.752,2.717 L89.672,2.717 L89.721,3.454 L89.75,3.454 C89.873,3.225 90.055,3.036 90.293,2.885 C90.578,2.709 90.895,2.62 91.244,2.62 C91.683,2.62 92.049,2.762 92.34,3.047 C92.703,3.396 92.883,3.917 92.883,4.609 L92.883,7.433 Z M99.936,3.504 L98.782,3.504 L98.782,5.794 C98.782,6.376 98.987,6.667 99.393,6.667 C99.581,6.667 99.737,6.651 99.86,6.618 L99.887,7.413 C99.68,7.491 99.408,7.53 99.073,7.53 C98.659,7.53 98.337,7.404 98.104,7.152 C97.87,6.9 97.754,6.476 97.754,5.881 L97.754,3.504 L97.065,3.504 L97.065,2.719 L97.754,2.719 L97.754,1.855 L98.781,1.545 L98.781,2.718 L99.935,2.718 L99.935,3.504 L99.936,3.504 Z M105.484,7.433 L104.435,7.433 L104.435,4.753 C104.435,3.908 104.119,3.485 103.486,3.485 C103,3.485 102.668,3.73 102.486,4.22 C102.455,4.323 102.437,4.449 102.437,4.597 L102.437,7.432 L101.39,7.432 L101.39,0.556 L102.437,0.556 L102.437,3.397 L102.457,3.397 C102.787,2.88 103.26,2.622 103.873,2.622 C104.307,2.622 104.666,2.764 104.951,3.049 C105.306,3.404 105.484,3.932 105.484,4.63 L105.484,7.433 Z M111.207,4.853 C111.207,5.041 111.193,5.199 111.168,5.328 L108.025,5.328 C108.039,5.794 108.189,6.149 108.48,6.395 C108.746,6.615 109.089,6.725 109.509,6.725 C109.974,6.725 110.398,6.651 110.78,6.502 L110.944,7.23 C110.497,7.424 109.971,7.521 109.362,7.521 C108.632,7.521 108.057,7.306 107.641,6.876 C107.223,6.446 107.016,5.869 107.016,5.145 C107.016,4.434 107.209,3.842 107.598,3.37 C108.004,2.866 108.553,2.614 109.246,2.614 C109.924,2.614 110.439,2.866 110.787,3.37 C111.068,3.77 111.207,4.265 111.207,4.853 Z M110.207,4.582 C110.215,4.271 110.146,4.003 110.004,3.777 C109.822,3.486 109.545,3.34 109.17,3.34 C108.828,3.34 108.549,3.482 108.336,3.767 C108.162,3.994 108.059,4.265 108.025,4.582 L110.207,4.582 Z" id="Download-on-the"></path>
                        <g id="Apple">
                            <path d="M18.128,13.784 C18.099,10.561 20.767,8.993 20.889,8.92 C19.378,6.717 17.036,6.416 16.213,6.392 C14.246,6.185 12.338,7.569 11.336,7.569 C10.314,7.569 8.771,6.412 7.108,6.446 C4.968,6.479 2.966,7.718 1.868,9.642 C-0.398,13.565 1.292,19.33 3.463,22.501 C4.549,24.054 5.818,25.788 7.479,25.727 C9.104,25.66 9.711,24.691 11.672,24.691 C13.615,24.691 14.185,25.727 15.879,25.688 C17.623,25.66 18.721,24.128 19.769,22.561 C21.024,20.781 21.528,19.028 21.548,18.938 C21.507,18.924 18.161,17.647 18.128,13.784 Z" id="Shape"></path>
                            <path d="M14.928,4.306 C15.802,3.213 16.4,1.726 16.234,0.217 C14.969,0.273 13.387,1.092 12.476,2.161 C11.67,3.103 10.95,4.647 11.136,6.099 C12.557,6.205 14.016,5.382 14.928,4.306 Z" id="Shape"></path>
                        </g>
                    </g>
                </g>
            </g>
        </g>
    </g>
</svg>