<?xml version="1.0" encoding="UTF-8"?>
<svg width="117px" height="29px" viewBox="0 0 117 29" version="1.1" xmlns="http://www.w3.org/2000/svg" xmlns:xlink="http://www.w3.org/1999/xlink">
    <!-- Generator: Sketch 53.2 (72643) - https://sketchapp.com -->
    <title>Google Play</title>
    <desc>Created with Sketch.</desc>
    <g id="Finals" stroke="none" stroke-width="1" fill="none" fill-rule="evenodd">
        <g id="Returning-User" transform="translate(-48.000000, -1960.000000)" fill="#5D677A">
            <g id="Group-11" transform="translate(30.000000, 1954.000000)">
                <g id="button---playStore">
                    <g id="Google-Play" transform="translate(18.000000, 6.000000)">
                        <path d="M97.936,24.0002 L99.801,24.0002 L99.801,11.4992 L97.936,11.4992 L97.936,24.0002 Z M114.743,16.0022 L112.604,21.4222 L112.54,21.4222 L110.32,16.0022 L108.31,16.0022 L111.64,23.5772 L109.741,27.7912 L111.687,27.7912 L116.818,16.0022 L114.743,16.0022 Z M104.16,22.5802 C103.55,22.5802 102.697,22.2742 102.697,21.5182 C102.697,20.5542 103.759,20.1832 104.676,20.1832 C105.495,20.1832 105.882,20.3612 106.38,20.6012 C106.235,21.7602 105.238,22.5802 104.16,22.5802 L104.16,22.5802 Z M104.386,15.7282 C103.035,15.7282 101.636,16.3242 101.057,17.6422 L102.713,18.3342 C103.067,17.6422 103.726,17.4172 104.418,17.4172 C105.383,17.4172 106.364,17.9962 106.38,19.0252 L106.38,19.1542 C106.042,18.9612 105.318,18.6722 104.434,18.6722 C102.648,18.6722 100.831,19.6532 100.831,21.4862 C100.831,23.1592 102.295,24.2372 103.935,24.2372 C105.189,24.2372 105.882,23.6742 106.315,23.0142 L106.38,23.0142 L106.38,23.9792 L108.182,23.9792 L108.182,19.1862 C108.182,16.9672 106.524,15.7282 104.386,15.7282 L104.386,15.7282 Z M92.854,17.5242 L90.2,17.5242 L90.2,13.2392 L92.854,13.2392 C94.249,13.2392 95.041,14.3932 95.041,15.3812 C95.041,16.3502 94.249,17.5242 92.854,17.5242 L92.854,17.5242 Z M92.806,11.4982 L88.335,11.4982 L88.335,24.0002 L90.2,24.0002 L90.2,19.2642 L92.806,19.2642 C94.874,19.2642 96.907,17.7662 96.907,15.3812 C96.907,12.9962 94.874,11.4982 92.806,11.4982 L92.806,11.4982 Z M68.425,22.5822 C67.136,22.5822 66.057,21.5032 66.057,20.0212 C66.057,18.5222 67.136,17.4272 68.425,17.4272 C69.697,17.4272 70.696,18.5222 70.696,20.0212 C70.696,21.5032 69.697,22.5822 68.425,22.5822 L68.425,22.5822 Z M70.567,16.7022 L70.503,16.7022 C70.084,16.2032 69.278,15.7512 68.264,15.7512 C66.137,15.7512 64.187,17.6202 64.187,20.0212 C64.187,22.4052 66.137,24.2582 68.264,24.2582 C69.278,24.2582 70.084,23.8072 70.503,23.2912 L70.567,23.2912 L70.567,23.9032 C70.567,25.5312 69.697,26.4002 68.296,26.4002 C67.152,26.4002 66.443,25.5792 66.153,24.8862 L64.526,25.5632 C64.993,26.6902 66.233,28.0762 68.296,28.0762 C70.487,28.0762 72.34,26.7872 72.34,23.6452 L72.34,16.0092 L70.567,16.0092 L70.567,16.7022 Z M73.629,24.0002 L75.497,24.0002 L75.497,11.4992 L73.629,11.4992 L73.629,24.0002 Z M78.252,19.8762 C78.204,18.2322 79.525,17.3952 80.475,17.3952 C81.217,17.3952 81.845,17.7662 82.055,18.2972 L78.252,19.8762 Z M84.052,18.4582 C83.697,17.5082 82.618,15.7512 80.411,15.7512 C78.22,15.7512 76.399,17.4752 76.399,20.0052 C76.399,22.3892 78.204,24.2582 80.62,24.2582 C82.569,24.2582 83.697,23.0662 84.165,22.3732 L82.715,21.4062 C82.231,22.1152 81.571,22.5822 80.62,22.5822 C79.67,22.5822 78.993,22.1472 78.559,21.2932 L84.245,18.9412 L84.052,18.4582 Z M38.744,17.0572 L38.744,18.8612 L43.061,18.8612 C42.933,19.8762 42.594,20.6172 42.079,21.1322 C41.45,21.7612 40.467,22.4542 38.744,22.4542 C36.085,22.4542 34.007,20.3112 34.007,17.6532 C34.007,14.9952 36.085,12.8512 38.744,12.8512 C40.178,12.8512 41.225,13.4152 41.998,14.1412 L43.271,12.8682 C42.191,11.8372 40.758,11.0472 38.744,11.0472 C35.102,11.0472 32.041,14.0122 32.041,17.6532 C32.041,21.2932 35.102,24.2582 38.744,24.2582 C40.709,24.2582 42.191,23.6132 43.351,22.4052 C44.543,21.2132 44.914,19.5372 44.914,18.1842 C44.914,17.7662 44.882,17.3792 44.817,17.0572 L38.744,17.0572 Z M49.822,22.5822 C48.534,22.5822 47.422,21.5192 47.422,20.0052 C47.422,18.4742 48.534,17.4272 49.822,17.4272 C51.111,17.4272 52.223,18.4742 52.223,20.0052 C52.223,21.5192 51.111,22.5822 49.822,22.5822 L49.822,22.5822 Z M49.822,15.7512 C47.47,15.7512 45.553,17.5402 45.553,20.0052 C45.553,22.4542 47.47,24.2582 49.822,24.2582 C52.175,24.2582 54.092,22.4542 54.092,20.0052 C54.092,17.5402 52.175,15.7512 49.822,15.7512 L49.822,15.7512 Z M59.136,22.5822 C57.847,22.5822 56.735,21.5192 56.735,20.0052 C56.735,18.4742 57.847,17.4272 59.136,17.4272 C60.425,17.4272 61.536,18.4742 61.536,20.0052 C61.536,21.5192 60.425,22.5822 59.136,22.5822 L59.136,22.5822 Z M59.136,15.7512 C56.784,15.7512 54.867,17.5402 54.867,20.0052 C54.867,22.4542 56.784,24.2582 59.136,24.2582 C61.488,24.2582 63.405,22.4542 63.405,20.0052 C63.405,17.5402 61.488,15.7512 59.136,15.7512 L59.136,15.7512 Z"></path>
                        <path d="M38.4184,4.2433 C38.4184,5.0813 38.1704,5.7483 37.6734,6.2463 C37.1084,6.8383 36.3734,7.1343 35.4694,7.1343 C34.6034,7.1343 33.8664,6.8343 33.2614,6.2333 C32.6544,5.6333 32.3524,4.8883 32.3524,4.0003 C32.3524,3.1113 32.6544,2.3673 33.2614,1.7663 C33.8664,1.1663 34.6034,0.8663 35.4694,0.8663 C35.8984,0.8663 36.3104,0.9503 36.7004,1.1173 C37.0914,1.2853 37.4044,1.5083 37.6394,1.7873 L37.1114,2.3153 C36.7144,1.8413 36.1674,1.6033 35.4694,1.6033 C34.8374,1.6033 34.2914,1.8253 33.8304,2.2693 C33.3694,2.7143 33.1394,3.2903 33.1394,4.0003 C33.1394,4.7093 33.3694,5.2863 33.8304,5.7303 C34.2914,6.1753 34.8374,6.3963 35.4694,6.3963 C36.1394,6.3963 36.6974,6.1733 37.1454,5.7263 C37.4354,5.4353 37.6034,5.0313 37.6474,4.5113 L35.4694,4.5113 L35.4694,3.7903 L38.3764,3.7903 C38.4044,3.9473 38.4184,4.0973 38.4184,4.2433 Z M43.0277,1.7374 L40.2957,1.7374 L40.2957,3.6394 L42.7587,3.6394 L42.7587,4.3604 L40.2957,4.3604 L40.2957,6.2624 L43.0277,6.2624 L43.0277,7.0004 L39.5247,7.0004 L39.5247,1.0004 L43.0277,1.0004 L43.0277,1.7374 Z M46.2787,7.0001 L45.5077,7.0001 L45.5077,1.7371 L43.8317,1.7371 L43.8317,1.0001 L47.9547,1.0001 L47.9547,1.7371 L46.2787,1.7371 L46.2787,7.0001 Z M50.938,7.0002 L50.938,1.0002 L51.709,1.0002 L51.709,7.0002 L50.938,7.0002 Z M55.1283,7.0001 L54.3573,7.0001 L54.3573,1.7371 L52.6813,1.7371 L52.6813,1.0001 L56.8043,1.0001 L56.8043,1.7371 L55.1283,1.7371 L55.1283,7.0001 Z M64.6092,6.2243 C64.0192,6.8313 63.2862,7.1343 62.4092,7.1343 C61.5322,7.1343 60.7992,6.8313 60.2102,6.2243 C59.6202,5.6183 59.3262,4.8773 59.3262,4.0003 C59.3262,3.1233 59.6202,2.3813 60.2102,1.7753 C60.7992,1.1693 61.5322,0.8663 62.4092,0.8663 C63.2812,0.8663 64.0122,1.1703 64.6052,1.7793 C65.1972,2.3883 65.4932,3.1283 65.4932,4.0003 C65.4932,4.8773 65.1982,5.6183 64.6092,6.2243 Z M60.7792,5.7223 C61.2232,6.1723 61.7662,6.3963 62.4092,6.3963 C63.0512,6.3963 63.5952,6.1723 64.0392,5.7223 C64.4832,5.2723 64.7062,4.6983 64.7062,4.0003 C64.7062,3.3023 64.4832,2.7273 64.0392,2.2783 C63.5952,1.8283 63.0512,1.6033 62.4092,1.6033 C61.7662,1.6033 61.2232,1.8283 60.7792,2.2783 C60.3362,2.7273 60.1132,3.3023 60.1132,4.0003 C60.1132,4.6983 60.3362,5.2723 60.7792,5.7223 Z M66.5751,7.0001 L66.5751,1.0001 L67.5131,1.0001 L70.4291,5.6671 L70.4631,5.6671 L70.4291,4.5111 L70.4291,1.0001 L71.2011,1.0001 L71.2011,7.0001 L70.3961,7.0001 L67.3461,2.1061 L67.3121,2.1061 L67.3461,3.2631 L67.3461,7.0001 L66.5751,7.0001 Z" id="Get-it-on"></path>
                        <path d="M1.50031912,1.47451364 C1.49719678,1.47739523 1.49408649,1.4802946 1.4909883,1.4832117 L1.509,1.4652 C1.7446401,1.25343053 2.04641833,1.1402 2.393,1.1402 C2.731,1.1402 3.112,1.2482 3.514,1.4772 L18.122,9.7772 L23.015,12.5572 C24.412,13.3512 24.412,14.6512 23.015,15.4462 L18.122,18.2262 L18.0552903,18.2631032 L3.514,26.5252 C2.90684939,26.8702202 2.34788273,26.9401904 1.90999553,26.7781366 C1.76178126,26.7232904 1.62740852,26.6418365 1.50974214,26.5354579 L1.49048372,26.5176837 C1.4718837,26.5001606 1.45371856,26.4819971 1.436,26.4632 C1.145,26.1562 0.973,25.6792 0.973,25.0592 L0.973,2.9432 C0.973,2.3242 1.145,1.8462 1.436,1.5382 C1.50657584,1.46876823 1.50344146,1.47163205 1.50031912,1.47451364 C1.47827258,1.49486029 1.45682666,1.51609301 1.436,1.5382 L12.517875,14.5 L1.436,26.4632 L18.122,9.7772 L12.8982747,14.2537435 L1.50031912,1.47451364 Z" id="Icon"></path>
                    </g>
                </g>
            </g>
        </g>
    </g>
</svg>